<svg width="177" height="58" viewBox="0 0 177 58" fill="none" xmlns="http://www.w3.org/2000/svg">
<path d="M175.566 50.6779C175.566 51.3953 175.437 52.1057 175.185 52.7684C174.934 53.4311 174.565 54.0332 174.101 54.5402C173.636 55.0472 173.085 55.4492 172.478 55.7232C171.871 55.9972 171.221 56.1379 170.564 56.1372H6.88318C5.55654 56.1387 4.28366 55.5644 3.34448 54.5406C2.40531 53.5169 1.87673 52.1274 1.875 50.6779V7.14216C1.87673 5.69198 2.4051 4.30182 3.34409 3.27692C4.28308 2.25202 5.55594 1.67616 6.88318 1.67578H170.563C171.22 1.67578 171.87 1.81718 172.477 2.09191C173.084 2.36664 173.636 2.76931 174.1 3.27693C174.565 3.78455 174.933 4.38717 175.184 5.05037C175.436 5.71358 175.565 6.42437 175.565 7.14216L175.566 50.6779Z" fill="white"/>
<path d="M170.564 57.407H6.8831C5.24883 57.4066 3.68144 56.6979 2.52486 55.4363C1.36828 54.1747 0.716977 52.4634 0.713867 50.6777L0.713867 7.14338C0.716285 5.35685 1.36716 3.64431 2.5237 2.38144C3.68025 1.11856 5.24802 0.40849 6.8831 0.406982L170.563 0.406982C172.198 0.409243 173.765 1.11956 174.922 2.38227C176.078 3.64498 176.729 5.35708 176.732 7.14338V50.6777C176.735 54.3894 173.963 57.407 170.564 57.407Z" fill="url(#paint0_linear_47_413)"/>
<path d="M175.566 50.6779C175.566 51.3953 175.437 52.1057 175.185 52.7684C174.934 53.4311 174.565 54.0332 174.101 54.5402C173.636 55.0472 173.085 55.4492 172.478 55.7232C171.871 55.9972 171.221 56.1379 170.564 56.1372H6.88319C5.55654 56.1387 4.28366 55.5644 3.34448 54.5406C2.40531 53.5169 1.87673 52.1274 1.875 50.6779V7.14216C1.87673 5.69198 2.4051 4.30182 3.34409 3.27692C4.28308 2.25202 5.55594 1.67616 6.88319 1.67578H170.563C171.22 1.67578 171.87 1.81718 172.477 2.09191C173.084 2.36664 173.636 2.76931 174.1 3.27693C174.565 3.78455 174.933 4.38717 175.184 5.05037C175.436 5.71358 175.565 6.42437 175.565 7.14216L175.566 50.6779Z" fill="url(#paint1_linear_47_413)"/>
<path d="M40.0172 28.6076C39.9794 24.0135 43.46 21.7785 43.6191 21.6745C41.6479 18.5343 38.5927 18.1053 37.519 18.0711C34.953 17.776 32.4639 19.7488 31.1567 19.7488C29.8235 19.7488 27.8105 18.0996 25.6411 18.1481C22.8493 18.1951 20.2376 19.9612 18.8052 22.7036C15.8491 28.2954 18.0538 36.5128 20.886 41.0327C22.3027 43.2478 23.9582 45.718 26.125 45.631C28.2449 45.537 29.0368 44.1558 31.595 44.1558C34.1298 44.1558 34.8734 45.631 37.0833 45.5755C39.3584 45.537 40.7908 43.3518 42.158 41.1183C43.7952 38.5825 44.4527 36.0823 44.4788 35.9541C44.4266 35.9341 40.0616 34.1124 40.0172 28.6076ZM35.8427 15.0977C36.9829 13.5398 37.763 11.4202 37.5464 9.26929C35.8962 9.34911 33.8324 10.5165 32.6439 12.0402C31.5924 13.383 30.6532 15.5838 30.8958 17.6534C32.7496 17.8045 34.6529 16.6314 35.8427 15.0977Z" fill="white"/>
<path d="M170.564 0.406982H82.8916L117.231 57.407H170.564C172.199 57.4055 173.766 56.6958 174.923 55.4335C176.079 54.1713 176.73 52.4595 176.733 50.6734V7.14338C176.731 5.35697 176.08 3.64464 174.923 2.38185C173.767 1.11906 172.199 0.408867 170.564 0.406982V0.406982Z" fill="url(#paint2_linear_47_413)"/>
<path d="M70.7231 45.3132H67.7604L66.1376 39.7413H60.4967L58.9508 45.3132H56.0664L61.6564 26.344H65.1083L70.7231 45.3132ZM65.6484 37.4037L64.1807 32.4504C64.0255 31.9444 63.7333 30.7528 63.3054 28.877H63.2532C63.081 29.6837 62.8057 30.8754 62.4287 32.4504L60.9859 37.4037H65.6484ZM85.0706 38.3059C85.0706 40.6322 84.4927 42.4709 83.3355 43.8208C82.2997 45.0224 81.0121 45.6225 79.4766 45.6225C77.8185 45.6225 76.6262 44.9768 75.9022 43.6825V50.8594H73.1208V36.1308C73.1208 34.6697 73.0856 33.1717 73.0178 31.6351H75.4638L75.6191 33.8031H75.6713C76.5988 32.1696 78.0064 31.3529 79.8954 31.3529C81.3722 31.3529 82.605 31.99 83.5912 33.2657C84.5761 34.5443 85.0706 36.2234 85.0706 38.3059ZM82.2371 38.4171C82.2371 37.0858 81.9631 35.9882 81.4126 35.123C80.8112 34.2236 80.0037 33.7732 78.9913 33.7732C78.3051 33.7732 77.6816 34.024 77.1245 34.5187C76.5662 35.0175 76.2009 35.669 76.03 36.4757C75.9537 36.7774 75.9104 37.088 75.9009 37.4008V39.6829C75.9009 40.6764 76.18 41.5159 76.7384 42.2029C77.2967 42.8871 78.0221 43.2307 78.9144 43.2307C79.9619 43.2307 80.7773 42.7874 81.3604 41.9079C81.9449 41.0256 82.2371 39.8625 82.2371 38.4171ZM99.4689 38.3059C99.4689 40.6322 98.891 42.4709 97.7339 43.8208C96.6968 45.0224 95.4105 45.6225 93.8737 45.6225C92.2156 45.6225 91.0232 44.9768 90.2992 43.6825V50.8594H87.5179V36.1308C87.5179 34.6697 87.4827 33.1717 87.4149 31.6351H89.8609L90.0161 33.8031H90.0683C90.9946 32.1696 92.4022 31.3529 94.2925 31.3529C95.7679 31.3529 97.0007 31.99 97.9896 33.2657C98.9732 34.5443 99.4689 36.2234 99.4689 38.3059ZM96.6341 38.4171C96.6341 37.0858 96.3589 35.9882 95.8084 35.123C95.207 34.2236 94.402 33.7732 93.3897 33.7732C92.7035 33.7732 92.0799 34.024 91.5203 34.5187C90.9619 35.0175 90.598 35.669 90.4271 36.4757C90.3423 36.852 90.2966 37.1585 90.2966 37.4008V39.6829C90.2966 40.6764 90.5771 41.5159 91.1328 42.2029C91.6912 42.8857 92.4165 43.2307 93.3114 43.2307C94.3603 43.2307 95.1757 42.7874 95.7575 41.9079C96.3419 41.0256 96.6341 39.8625 96.6341 38.4171ZM115.567 39.9922C115.567 41.6071 115.051 42.9199 114.024 43.9334C112.894 45.0395 111.317 45.594 109.295 45.594C107.427 45.594 105.929 45.2005 104.799 44.4123L105.442 41.8794C106.662 42.669 108.002 43.0625 109.461 43.0625C110.509 43.0625 111.325 42.803 111.907 42.2885C112.49 41.7725 112.785 41.0826 112.785 40.2216C112.785 39.4505 112.541 38.8048 112.062 38.2788C111.58 37.7543 110.785 37.2654 109.667 36.8164C106.627 35.5777 105.106 33.7661 105.106 31.3828C105.106 29.8263 105.643 28.552 106.716 27.5556C107.788 26.5607 109.21 26.0632 110.979 26.0632C112.559 26.0632 113.875 26.364 114.92 26.9641L114.222 29.4414C113.239 28.8599 112.128 28.5691 110.886 28.5691C109.905 28.5691 109.136 28.8328 108.585 29.3573C108.122 29.8263 107.887 30.3979 107.887 31.0763C107.887 31.8247 108.155 32.4461 108.687 32.9336C109.149 33.3826 109.991 33.8715 111.21 34.3961C112.705 35.0546 113.803 35.8215 114.507 36.7024C115.215 37.5832 115.567 38.6822 115.567 39.9922ZM124.786 33.9157H121.721V40.5566C121.721 42.2457 122.261 43.0881 123.344 43.0881C123.841 43.0881 124.253 43.0425 124.579 42.947L124.656 45.2547C124.108 45.4785 123.387 45.5911 122.493 45.5911C121.395 45.5911 120.536 45.2248 119.917 44.4921C119.299 43.7595 118.989 42.5322 118.989 40.8046V33.91H117.163V31.6294H118.989V29.125L121.721 28.2241V31.6294H124.786V33.9157ZM138.591 38.3615C138.591 40.464 138.041 42.1901 136.942 43.54C135.793 44.9297 134.264 45.6225 132.358 45.6225C130.519 45.6225 129.056 44.9568 127.966 43.6269C126.875 42.2942 126.33 40.6151 126.33 38.5896C126.33 36.47 126.893 34.7339 128.017 33.384C129.142 32.0328 130.658 31.3571 132.564 31.3571C134.401 31.3571 135.876 32.0242 136.993 33.3555C138.06 34.6469 138.591 36.3147 138.591 38.3615ZM135.708 38.4314C135.708 37.1784 135.46 36.1037 134.963 35.2043C134.38 34.1181 133.545 33.575 132.464 33.575C131.35 33.575 130.495 34.1181 129.913 35.2043C129.415 36.1037 129.167 37.197 129.167 38.4884C129.167 39.7427 129.415 40.8203 129.913 41.7169C130.515 42.803 131.354 43.3461 132.44 43.3461C133.503 43.3461 134.337 42.7916 134.94 41.6898C135.451 40.769 135.708 39.6871 135.708 38.4314ZM147.636 34.3077C147.346 34.2506 147.053 34.2225 146.759 34.2236C145.781 34.2236 145.024 34.6256 144.492 35.4352C144.03 36.1479 143.798 37.0487 143.798 38.1363V45.3132H141.016V35.9426C141.019 34.5068 140.992 33.071 140.936 31.6365H143.358L143.46 34.2535H143.537C143.832 33.3541 144.293 32.6286 144.927 32.0855C145.508 31.611 146.213 31.354 146.938 31.3529C147.195 31.3529 147.427 31.3728 147.633 31.4085L147.636 34.3077ZM160.075 37.827C160.082 38.289 160.048 38.7506 159.973 39.2053H151.629C151.66 40.5566 152.065 41.5915 152.84 42.3041C153.543 42.9399 154.452 43.2592 155.569 43.2592C156.804 43.2592 157.931 43.0454 158.945 42.6135L159.381 44.7216C158.196 45.2861 156.798 45.5669 155.184 45.5669C153.243 45.5669 151.719 44.9426 150.61 43.6968C149.504 42.4495 148.949 40.7733 148.949 38.6737C148.949 36.6126 149.465 34.895 150.497 33.5252C151.577 32.0627 153.037 31.3315 154.873 31.3315C156.678 31.3315 158.043 32.0627 158.971 33.5252C159.705 34.684 160.075 36.1208 160.075 37.827ZM157.422 37.0387C157.442 36.1365 157.259 35.3596 156.882 34.7025C156.401 33.8558 155.66 33.4339 154.667 33.4339C153.758 33.4339 153.017 33.8459 152.453 34.6726C151.99 35.3297 151.715 36.1194 151.63 37.0359L157.422 37.0387Z" fill="white"/>
<path d="M59.6942 19.6362C58.9206 19.6362 58.2514 19.5949 57.6943 19.525V10.354C58.4734 10.2225 59.2607 10.1577 60.0491 10.1602C63.2387 10.1602 64.7076 11.8749 64.7076 14.6701C64.7076 17.8944 62.9726 19.6362 59.6942 19.6362ZM60.1612 11.3361C59.7307 11.3361 59.3642 11.3646 59.0602 11.4331V18.4047C59.2246 18.4332 59.5403 18.446 59.9838 18.446C62.0737 18.446 63.2635 17.146 63.2635 14.7115C63.2635 12.5406 62.1872 11.3361 60.1612 11.3361ZM69.2853 19.706C67.4876 19.706 66.3227 18.2393 66.3227 16.248C66.3227 14.1727 67.5124 12.6931 69.3871 12.6931C71.1586 12.6931 72.3497 14.09 72.3497 16.1383C72.3497 18.2393 71.1221 19.706 69.2853 19.706ZM69.3375 13.785C68.3499 13.785 67.7172 14.7941 67.7172 16.2053C67.7172 17.5893 68.363 18.5985 69.3244 18.5985C70.2859 18.5985 70.9316 17.5195 70.9316 16.1768C70.9316 14.8084 70.2989 13.785 69.3375 13.785ZM82.6009 12.8314L80.6767 19.5535H79.423L78.6259 16.6343C78.4277 15.9203 78.2627 15.1957 78.1315 14.4634H78.1054C78.0049 15.1961 77.8145 15.9302 77.6123 16.6343L76.7643 19.5535H75.4976L73.6869 12.8314H75.0919L75.7885 16.0271C75.9529 16.7883 76.0912 17.5067 76.206 18.1851H76.232C76.3325 17.6193 76.4969 16.9123 76.7382 16.0414L77.6123 12.8328H78.7264L79.5626 15.9729C79.7648 16.7341 79.9292 17.481 80.057 18.1866H80.0935C80.1822 17.4953 80.3218 16.7612 80.511 15.9729L81.2585 12.8328L82.6009 12.8314ZM89.6846 19.5535H88.3174V15.6936C88.3174 14.5048 87.9 13.909 87.0768 13.909C86.2667 13.909 85.7096 14.6701 85.7096 15.5553V19.5535H84.3425V14.7528C84.3425 14.1584 84.3294 13.5213 84.2916 12.8299H85.4944L85.5583 13.8676H85.5961C85.964 13.1492 86.7102 12.6931 87.5464 12.6931C88.838 12.6931 89.6859 13.7721 89.6859 15.5282L89.6846 19.5535ZM93.4548 19.5535H92.0863V9.74683H93.4548V19.5535ZM98.4395 19.706C96.6431 19.706 95.4768 18.2393 95.4768 16.248C95.4768 14.1727 96.6666 12.6931 98.5399 12.6931C100.313 12.6931 101.503 14.09 101.503 16.1383C101.504 18.2393 100.275 19.706 98.4395 19.706ZM98.4903 13.785C97.5028 13.785 96.8701 14.7941 96.8701 16.2053C96.8701 17.5893 97.5172 18.5985 98.476 18.5985C99.4388 18.5985 100.083 17.5195 100.083 16.1768C100.085 14.8084 99.4531 13.785 98.4903 13.785ZM106.893 19.5535L106.794 18.7795H106.757C106.34 19.4024 105.731 19.706 104.958 19.706C103.856 19.706 103.073 18.8622 103.073 17.7276C103.073 16.0684 104.39 15.2104 106.669 15.2104V15.0863C106.669 14.2012 106.239 13.7579 105.391 13.7579C104.785 13.7579 104.253 13.9247 103.784 14.2568L103.506 13.2747C104.075 12.887 104.785 12.6931 105.618 12.6931C107.226 12.6931 108.037 13.6196 108.037 15.4741V17.95C108.037 18.6284 108.064 19.1544 108.126 19.5549L106.893 19.5535ZM106.705 16.2053C105.187 16.2053 104.425 16.6072 104.425 17.5608C104.425 18.2664 104.817 18.6113 105.363 18.6113C106.058 18.6113 106.705 18.0312 106.705 17.243V16.2053ZM114.676 19.5535L114.612 18.4745H114.574C114.182 19.2898 113.521 19.706 112.599 19.706C111.116 19.706 110.017 18.2806 110.017 16.2751C110.017 14.1727 111.156 12.6917 112.711 12.6917C113.534 12.6917 114.118 12.9953 114.446 13.6054H114.474V9.74683H115.842V17.7418C115.842 18.3918 115.857 19.0005 115.893 19.5535H114.676ZM114.474 15.5981C114.474 14.6573 113.904 13.8548 113.034 13.8548C112.02 13.8548 111.4 14.8369 111.4 16.2195C111.4 17.5751 112.043 18.503 113.006 18.503C113.866 18.503 114.474 17.6863 114.474 16.7184V15.5981ZM124.519 19.706C122.722 19.706 121.557 18.2393 121.557 16.248C121.557 14.1727 122.747 12.6931 124.621 12.6931C126.393 12.6931 127.583 14.09 127.583 16.1383C127.585 18.2393 126.357 19.706 124.519 19.706ZM124.57 13.785C123.583 13.785 122.951 14.7941 122.951 16.2053C122.951 17.5893 123.596 18.5985 124.557 18.5985C125.519 18.5985 126.164 17.5195 126.164 16.1768C126.166 14.8084 125.534 13.785 124.57 13.785ZM134.936 19.5535H133.567V15.6936C133.567 14.5048 133.15 13.909 132.327 13.909C131.516 13.909 130.961 14.6701 130.961 15.5553V19.5535H129.592V14.7528C129.592 14.1584 129.579 13.5213 129.541 12.8299H130.744L130.808 13.8676H130.846C131.212 13.1492 131.96 12.6917 132.795 12.6917C134.086 12.6917 134.936 13.7707 134.936 15.5268V19.5535ZM144.134 13.9517H142.63V17.2159C142.63 18.0469 142.893 18.4617 143.426 18.4617C143.667 18.4617 143.869 18.4332 144.032 18.3918L144.07 19.5264C143.805 19.6376 143.451 19.6932 143.01 19.6932C141.932 19.6932 141.288 19.0432 141.288 17.3413V13.9517H140.39V12.8314H141.288V11.5998L142.63 11.1565V12.8299H144.134V13.9517ZM151.372 19.5535H150.006V15.7221C150.006 14.519 149.59 13.9104 148.765 13.9104C148.057 13.9104 147.397 14.4364 147.397 15.5011V19.5535H146.031V9.74683H147.397V13.785H147.424C147.855 13.0523 148.478 12.6917 149.274 12.6917C150.576 12.6917 151.372 13.7978 151.372 15.5553V19.5535ZM158.787 16.5516H154.684C154.71 17.8245 155.481 18.5429 156.623 18.5429C157.229 18.5429 157.788 18.4317 158.281 18.2251L158.493 19.2627C157.911 19.5393 157.227 19.6775 156.43 19.6775C154.505 19.6775 153.366 18.3491 153.366 16.2894C153.366 14.2283 154.533 12.6789 156.276 12.6789C157.848 12.6789 158.834 13.9517 158.834 15.8746C158.843 16.1015 158.827 16.3288 158.787 16.5516ZM157.533 15.4869C157.533 14.4492 157.054 13.7165 156.18 13.7165C155.395 13.7165 154.774 14.4634 154.685 15.4869H157.533Z" fill="white"/>
<defs>
<linearGradient id="paint0_linear_47_413" x1="10.8688" y1="6.92128" x2="179.873" y2="42.4787" gradientUnits="userSpaceOnUse">
<stop stop-color="#11123E"/>
<stop offset="1" stop-color="#1E234C"/>
</linearGradient>
<linearGradient id="paint1_linear_47_413" x1="11.8956" y1="7.89995" x2="178.196" y2="44.0352" gradientUnits="userSpaceOnUse">
<stop stop-color="#20A8B9"/>
<stop offset="1" stop-color="#AE1DA9"/>
</linearGradient>
<linearGradient id="paint2_linear_47_413" x1="129.811" y1="57.5583" x2="129.811" y2="-148.011" gradientUnits="userSpaceOnUse">
<stop stop-color="#1A1A1A" stop-opacity="0.1"/>
<stop offset="0.123" stop-color="#212121" stop-opacity="0.151"/>
<stop offset="0.308" stop-color="#353535" stop-opacity="0.227"/>
<stop offset="0.532" stop-color="#575757" stop-opacity="0.318"/>
<stop offset="0.783" stop-color="#858585" stop-opacity="0.421"/>
<stop offset="1" stop-color="#B3B3B3" stop-opacity="0.51"/>
</linearGradient>
</defs>
</svg>
