<svg width="177" height="58" viewBox="0 0 177 58" fill="none" xmlns="http://www.w3.org/2000/svg">
<path d="M176.714 49.7035C176.714 53.9572 173.231 57.407 168.934 57.407H8.47155C4.1749 57.4073 0.69043 53.9576 0.69043 49.7035V8.10982C0.69043 3.8564 4.1749 0.406982 8.47155 0.406982H168.934C173.23 0.406982 176.714 3.8564 176.714 8.10982V49.7035H176.714Z" fill="url(#paint0_linear_47_404)"/>
<path d="M13.8936 11.3806V49.981L33.5559 30.681L13.8936 11.3806Z" fill="url(#paint1_linear_47_404)"/>
<path d="M38.8369 25.4975L30.8998 20.9613L13.8936 11.241V11.3813L33.5559 30.6817L38.8369 25.4975Z" fill="url(#paint2_linear_47_404)"/>
<path d="M13.8936 49.9814V50.1218L30.8998 40.4011L38.8365 35.8649L33.5559 30.6814L13.8936 49.9814Z" fill="url(#paint3_linear_47_404)"/>
<path d="M38.8366 25.4968L33.5557 30.681L38.8362 35.8645L47.9068 30.6807L38.8366 25.4968Z" fill="url(#paint4_linear_47_404)"/>
<path d="M137.68 38.2269C136.942 38.2269 136.268 38.092 135.658 37.8225C135.047 37.5527 134.535 37.1377 134.121 36.5783H133.997C134.079 37.2338 134.121 37.8553 134.121 38.4422V43.0615H132.404V26.7963H133.8L134.038 28.3328H134.121C134.562 27.7179 135.077 27.2746 135.663 27.0014C136.249 26.7282 136.922 26.5916 137.68 26.5916C139.184 26.5916 140.344 27.1005 141.161 28.1178C141.979 29.1351 142.388 30.5626 142.388 32.3988C142.388 34.2426 141.972 35.6745 141.141 36.6962C140.31 37.7169 139.157 38.2269 137.68 38.2269ZM137.432 28.0357C136.273 28.0357 135.435 28.3536 134.918 28.9883C134.4 29.6233 134.135 30.6341 134.121 32.0204V32.3989C134.121 33.9766 134.386 35.1049 134.918 35.7846C135.449 36.4643 136.301 36.8032 137.473 36.8032C138.453 36.8032 139.22 36.4111 139.776 35.6258C140.331 34.8409 140.608 33.7585 140.608 32.3784C140.608 30.9793 140.331 29.9047 139.776 29.1573C139.221 28.4091 138.439 28.0357 137.432 28.0357ZM146.365 38.0218H144.647V22.0847H146.365V38.0218ZM156.239 38.0218L155.897 36.424H155.815C155.249 37.1279 154.685 37.6045 154.123 37.8528C153.561 38.1026 152.859 38.2269 152.018 38.2269C150.894 38.2269 150.012 37.9401 149.374 37.3667C148.736 36.7933 148.417 35.9777 148.417 34.9189C148.417 32.6523 150.249 31.464 153.911 31.3543L155.836 31.2927V30.5963C155.836 29.7153 155.644 29.0646 155.261 28.6452C154.879 28.2248 154.266 28.0149 153.425 28.0149C152.48 28.0149 151.41 28.3018 150.218 28.8752L149.69 27.5744C150.249 27.274 150.86 27.0386 151.527 26.8679C152.192 26.6972 152.859 26.6117 153.529 26.6117C154.88 26.6117 155.882 26.9084 156.534 27.5026C157.186 28.0967 157.512 29.0493 157.512 30.3606V38.0215H156.239V38.0218H156.239ZM152.359 36.824C153.428 36.824 154.267 36.5337 154.878 35.9535C155.488 35.3733 155.794 34.5605 155.794 33.5153V32.5014L154.076 32.5726C152.71 32.6213 151.726 32.8305 151.122 33.2035C150.519 33.5756 150.217 34.1544 150.217 34.9397C150.217 35.5539 150.404 36.022 150.781 36.3422C151.157 36.6635 151.683 36.824 152.359 36.824ZM158.509 26.7963H160.35L162.833 33.1981C163.378 34.6596 163.716 35.7144 163.848 36.3633H163.93C164.02 36.0145 164.208 35.4193 164.494 34.5751C164.78 33.7316 165.717 31.1393 167.303 26.7963H169.146L164.272 39.5791C163.789 40.8423 163.225 41.7386 162.58 42.2687C161.935 42.7975 161.143 43.0615 160.206 43.0615C159.682 43.0615 159.164 43.0036 158.653 42.8878V41.5257C159.033 41.6075 159.457 41.6487 159.926 41.6487C161.106 41.6487 161.947 40.9932 162.451 39.682L163.082 38.0845L158.509 26.7963ZM105.864 27.8395C106.409 28.2861 107.548 29.2243 107.548 31.0099C107.548 32.7463 106.551 33.5698 105.555 34.3435C105.247 34.6483 104.891 34.9781 104.891 35.4953C104.891 36.0107 105.246 36.2929 105.508 36.5044L106.362 37.1605C107.406 38.0296 108.354 38.8285 108.354 40.4492C108.354 42.6561 106.195 44.8859 102.116 44.8859C98.6767 44.8859 97.0173 43.2663 97.0173 41.5278C97.0173 40.6829 97.4422 39.486 98.8436 38.6633C100.313 37.771 102.307 37.6549 103.374 37.5827C103.04 37.1606 102.662 36.7143 102.662 35.9876C102.662 35.589 102.781 35.3539 102.899 35.0708C102.637 35.0947 102.377 35.1182 102.139 35.1182C99.6259 35.1182 98.2029 33.2632 98.2029 31.4327C98.2029 30.3524 98.7015 29.1542 99.7202 28.2865C101.073 27.183 102.685 26.9946 103.967 26.9946H108.852L107.334 27.8398H105.864V27.8395H105.864ZM104.18 38.2651C103.99 38.2405 103.871 38.2405 103.635 38.2405C103.421 38.2405 102.139 38.2886 101.144 38.618C100.622 38.8044 99.1037 39.3679 99.1037 41.0358C99.1037 42.7021 100.741 43.9014 103.279 43.9014C105.555 43.9014 106.766 42.819 106.766 41.3646C106.766 40.1647 105.983 39.5334 104.18 38.2651ZM104.868 33.8031C105.413 33.2625 105.459 32.512 105.459 32.0888C105.459 30.3987 104.44 27.769 102.472 27.769C101.854 27.769 101.191 28.0739 100.811 28.544C100.409 29.037 100.289 29.6703 100.289 30.2815C100.289 31.8544 101.214 34.461 103.255 34.461C103.848 34.461 104.487 34.1793 104.868 33.8031ZM90.932 37.8893C87.1674 37.8893 85.1546 34.9822 85.1546 32.3563C85.1546 29.285 87.6878 26.6607 91.2886 26.6607C94.7679 26.6607 96.9467 29.3555 96.9467 32.1927C96.947 34.9577 94.793 37.8893 90.932 37.8893ZM93.8917 35.9907C94.4609 35.2398 94.603 34.3026 94.603 33.3875C94.603 31.324 93.6085 27.3864 90.6719 27.3864C89.8907 27.3864 89.1095 27.6917 88.5413 28.185C87.6176 29.0043 87.451 30.0362 87.451 31.0453C87.451 33.3644 88.6115 37.1844 91.4775 37.1844C92.4009 37.1844 93.3483 36.7398 93.8917 35.9907ZM78.0972 37.8893C74.3318 37.8893 72.3186 34.9822 72.3186 32.3563C72.3186 29.285 74.8529 26.6607 78.4527 26.6607C81.933 26.6607 84.1114 29.3555 84.1114 32.1927C84.1118 34.9577 81.9574 37.8893 78.0972 37.8893ZM81.0575 35.9907C81.6257 35.2398 81.7682 34.3026 81.7682 33.3875C81.7682 31.324 80.7729 27.3864 77.8363 27.3864C77.0554 27.3864 76.2735 27.6917 75.7057 28.185C74.782 29.0043 74.6164 30.0362 74.6164 31.0453C74.6164 33.3644 75.7762 37.1844 78.6426 37.1844C79.5663 37.1844 80.5131 36.7398 81.0575 35.9907ZM70.5098 37.5217L67.1048 38.2995C65.7234 38.5121 64.4859 38.6991 63.1771 38.6991C56.6053 38.6991 54.1064 33.9145 54.1064 30.167C54.1064 25.5954 57.6532 21.3542 63.725 21.3542C65.011 21.3542 66.2479 21.5423 67.3667 21.8489C69.1521 22.344 69.9853 22.9561 70.5094 23.3101L68.5327 25.1719L67.6998 25.3597L68.2949 24.4166C67.4858 23.6396 66.0084 22.2022 63.2001 22.2022C59.4383 22.2022 56.6046 25.0316 56.6046 29.1555C56.6046 33.5851 59.843 37.7568 65.032 37.7568C66.5573 37.7568 67.3413 37.4509 68.056 37.1674V33.3739L64.4618 33.5623L66.3656 32.5478H71.4132L70.7947 33.1368C70.6268 33.2789 70.6038 33.3266 70.5563 33.5133C70.5315 33.7258 70.5091 34.4099 70.5091 34.6453V37.5217H70.5098V37.5217Z" fill="#F9F9F9"/>
<path d="M113.39 36.8433C112.604 36.7724 112.439 36.6317 112.439 35.7115V22.3724C112.444 22.3217 112.447 22.2696 112.452 22.2205C112.548 21.396 112.786 21.2546 113.525 20.8298H110.119L108.333 21.6785H110.153V21.689L110.152 21.6805V36.2307C110.152 36.7012 110.058 36.7728 109.51 37.479H113.724L114.605 36.9619C114.201 36.9131 113.795 36.8903 113.39 36.8433ZM123.078 37.06C122.818 37.2007 122.558 37.3652 122.299 37.4814C121.518 37.8323 120.714 37.9263 120.003 37.9263C119.249 37.9263 118.065 37.8779 116.858 37.013C115.181 35.8417 114.448 33.829 114.448 32.0741C114.448 28.4468 117.427 26.6681 119.862 26.6681C120.714 26.6681 121.589 26.8783 122.299 27.324C123.48 28.0949 123.787 29.1013 123.952 29.6399L118.397 31.8642L116.576 32.0046C117.166 34.977 119.199 36.7077 121.446 36.7077C122.652 36.7077 123.527 36.2873 124.331 35.8901L123.078 37.06ZM120.856 30.0841C121.304 29.921 121.541 29.7799 121.541 29.4525C121.541 28.517 120.477 27.4398 119.199 27.4398C118.253 27.4398 116.481 28.1658 116.481 30.693C116.481 31.0909 116.528 31.512 116.553 31.9347L120.856 30.0841ZM125.36 26.8282V28.3726H125.17V26.8282H124.654V26.6681H125.875V26.8282H125.36ZM127.486 28.3726V26.8139H127.478L126.997 28.3726H126.849L126.364 26.8139H126.358V28.3726H126.186V26.6681H126.481L126.92 28.0458H126.926L127.358 26.6681H127.657V28.3726H127.486Z" fill="#F9F9F9"/>
<path d="M58.8354 16.7649H57.6522C57.6522 16.6038 57.54 16.1476 57.3157 15.396H55.6076C55.3761 16.1353 55.2601 16.5915 55.2601 16.7649H54.1475C54.1475 16.6698 54.4352 15.889 55.0106 14.4227C55.586 12.9564 55.8737 12.1486 55.8737 12.0001H57.2713C57.2713 12.1391 57.5318 12.9349 58.0532 14.388C58.5745 15.841 58.8354 16.6331 58.8354 16.7649ZM57.1274 14.697C56.7058 13.4381 56.4952 12.7574 56.4952 12.6549H56.436C56.436 12.75 56.2178 13.4306 55.7818 14.697H57.1274ZM63.6025 16.7649H62.6895C62.6895 16.6647 62.3505 16.1367 61.6729 15.1804C60.9633 14.1726 60.5589 13.4838 60.4605 13.1128H60.4013C60.4629 13.647 60.4939 14.1301 60.4939 14.5621C60.4939 15.1647 60.5111 15.8993 60.5455 16.7653H59.6359C59.6727 16.009 59.6914 15.1784 59.6914 14.2732C59.6914 13.3827 59.6728 12.6249 59.6359 12.0005H60.7337C60.7337 12.1299 61.038 12.6461 61.6468 13.5485C62.2948 14.5072 62.6672 15.1576 62.7632 15.4993H62.8186C62.7594 14.9552 62.7298 14.4673 62.7298 14.0354C62.7298 13.3745 62.7126 12.6958 62.6782 12.0005H63.6026C63.5678 12.6055 63.5509 13.3632 63.5509 14.2732C63.5505 15.1899 63.5677 16.0205 63.6025 16.7649ZM68.9605 14.2176C68.9605 14.9106 68.7361 15.5156 68.2877 16.0328C67.8389 16.5503 67.2105 16.8085 66.4021 16.8085C66.0373 16.8085 65.5345 16.7939 64.8937 16.7646C64.9257 16.0277 64.9419 15.1967 64.9419 14.2725C64.9419 13.3847 64.9257 12.627 64.8937 11.9998H65.5408C65.6467 11.9998 65.8043 11.996 66.014 11.9889C66.2232 11.9817 66.3601 11.978 66.4241 11.978C67.3138 11.978 67.9587 12.1977 68.3596 12.6368C68.7602 13.076 68.9605 13.6027 68.9605 14.2176ZM67.9514 14.375C67.9514 13.9065 67.8134 13.512 67.5374 13.1908C67.2614 12.8702 66.8398 12.7098 66.273 12.7098C66.1671 12.7098 66.0218 12.7207 65.8367 12.7428C65.8611 13.231 65.8735 13.7406 65.8735 14.2725C65.8735 14.8557 65.8859 15.4339 65.9103 16.0072C66.0684 16.0388 66.2294 16.0547 66.3907 16.0549C66.9207 16.0549 67.313 15.8918 67.5681 15.566C67.8231 15.2403 67.9514 14.8434 67.9514 14.375ZM73.9014 16.7649H72.807C72.521 15.9013 72.3018 15.3681 72.149 15.1657C71.9962 14.963 71.7498 14.8618 71.4098 14.8618C71.2666 14.8618 71.13 14.8632 70.9996 14.8656C70.9996 15.4928 71.0106 16.1258 71.033 16.7649H70.0054C70.0373 16.028 70.0535 15.1971 70.0535 14.2728C70.0535 13.385 70.0374 12.6273 70.0054 12.0001H70.6447C70.7187 12.0001 70.8733 11.9964 71.1087 11.9892C71.3441 11.9821 71.5616 11.9783 71.7612 11.9783C72.8924 11.9783 73.4582 12.3612 73.4582 13.1274C73.4582 13.7349 73.1354 14.158 72.4897 14.3975V14.4523C72.7386 14.5205 72.9567 14.713 73.144 15.0284C73.3308 15.3443 73.5834 15.9231 73.9014 16.7649ZM72.5152 13.3979C72.5152 12.9124 72.1996 12.6696 71.5688 12.6696C71.3372 12.6696 71.1324 12.6866 70.9552 12.7207C70.9824 13.0988 70.9958 13.5918 70.9958 14.1992C71.1314 14.2043 71.246 14.2064 71.3396 14.2064C72.1232 14.2067 72.5152 13.9372 72.5152 13.3979ZM79.2005 14.2946C79.2005 15.0434 78.9689 15.6645 78.5054 16.1574C78.0418 16.6501 77.4688 16.8967 76.7864 16.8967C76.1356 16.8967 75.5908 16.6705 75.1524 16.2177C74.7136 15.7653 74.4944 15.1899 74.4944 14.4925C74.4944 13.7437 74.726 13.1226 75.1895 12.6297C75.6528 12.137 76.2257 11.8904 76.9085 11.8904C77.5593 11.8904 78.1038 12.1159 78.5425 12.5673C78.9813 13.0188 79.2005 13.5942 79.2005 14.2946ZM78.1805 14.4006C78.1805 13.8906 78.0487 13.477 77.7851 13.1598C77.5211 12.8426 77.1959 12.6842 76.8091 12.6842C76.4491 12.6842 76.1435 12.844 75.8923 13.1635C75.641 13.4831 75.5147 13.8868 75.5147 14.375C75.5147 14.8823 75.6472 15.2952 75.9122 15.6138C76.1772 15.9323 76.5018 16.0914 76.8865 16.0914C77.2461 16.0914 77.5521 15.9309 77.8033 15.61C78.0545 15.2894 78.1805 14.886 78.1805 14.4006ZM81.2909 16.7649H80.2447C80.2767 16.0086 80.2929 15.178 80.2929 14.2728C80.2929 13.3823 80.2767 12.6246 80.2447 12.0001H81.2909C81.2589 12.615 81.2427 13.3724 81.2427 14.2728C81.2427 15.1923 81.2589 16.0232 81.2909 16.7649ZM86.6492 14.2176C86.6492 14.9106 86.4248 15.5156 85.9764 16.0328C85.5277 16.5503 84.8992 16.8085 84.0908 16.8085C83.726 16.8085 83.2233 16.7939 82.5824 16.7646C82.6145 16.0277 82.6306 15.1967 82.6306 14.2725C82.6306 13.3847 82.6145 12.627 82.5824 11.9998H83.2295C83.3354 11.9998 83.4931 11.996 83.7027 11.9889C83.9119 11.9817 84.0489 11.978 84.1129 11.978C85.0025 11.978 85.6474 12.1977 86.0483 12.6368C86.4489 13.076 86.6492 13.6027 86.6492 14.2176ZM85.6402 14.375C85.6402 13.9065 85.5022 13.512 85.2262 13.1908C84.9501 12.8702 84.5286 12.7098 83.9618 12.7098C83.8558 12.7098 83.7105 12.7207 83.5254 12.7428C83.5498 13.231 83.5622 13.7406 83.5622 14.2725C83.5622 14.8557 83.5746 15.4339 83.599 16.0072C83.7572 16.0388 83.9181 16.0547 84.0794 16.0549C84.6094 16.0549 85.0017 15.8918 85.2568 15.566C85.5118 15.2403 85.6402 14.8434 85.6402 14.375ZM93.7579 16.7649H92.5747C92.5747 16.6038 92.4625 16.1476 92.2378 15.396H90.5298C90.2982 16.1353 90.1822 16.5915 90.1822 16.7649H89.0699C89.0699 16.6698 89.3576 15.889 89.9331 14.4227C90.5085 12.9564 90.7962 12.1486 90.7962 12.0001H92.1937C92.1937 12.1391 92.4546 12.9349 92.9756 14.388C93.4967 15.841 93.7579 16.6331 93.7579 16.7649ZM92.0499 14.697C91.6283 13.4381 91.4173 12.7574 91.4173 12.6549H91.3581C91.3581 12.75 91.1403 13.4306 90.7043 14.697H92.0499ZM98.07 13.2477C98.07 13.8309 97.8511 14.2616 97.4137 14.5396C96.9763 14.8176 96.4398 14.9569 95.8038 14.9569C95.6878 14.9569 95.6056 14.9545 95.556 14.9497C95.556 15.4086 95.5694 16.0134 95.5966 16.7649H94.5576C94.5896 16.06 94.6058 15.2291 94.6058 14.2728C94.6058 13.3945 94.5897 12.6368 94.5576 12.0001H95.2008C95.292 12.0001 95.4668 11.9964 95.7256 11.9892C95.9845 11.9821 96.2085 11.9783 96.3984 11.9783C96.8665 11.9783 97.2623 12.0832 97.5851 12.2931C97.9079 12.503 98.07 12.8208 98.07 13.2477ZM97.1164 13.449C97.1164 12.9271 96.7664 12.6658 96.0664 12.6658C95.8912 12.6658 95.7064 12.6842 95.512 12.7207C95.5392 13.1819 95.5526 13.7039 95.5526 14.2871C95.6142 14.2922 95.6858 14.2943 95.767 14.2943C96.6666 14.2946 97.1164 14.0129 97.1164 13.449ZM102.504 13.2477C102.504 13.8309 102.285 14.2616 101.848 14.5396C101.411 14.8176 100.874 14.9569 100.238 14.9569C100.122 14.9569 100.04 14.9545 99.99 14.9497C99.99 15.4086 100.003 16.0134 100.031 16.7649H98.9916C99.0237 16.06 99.0399 15.2291 99.0399 14.2728C99.0399 13.3945 99.0237 12.6368 98.9916 12.0001H99.6348C99.7261 12.0001 99.9009 11.9964 100.16 11.9892C100.418 11.9821 100.643 11.9783 100.832 11.9783C101.3 11.9783 101.696 12.0832 102.019 12.2931C102.342 12.503 102.504 12.8208 102.504 13.2477ZM101.55 13.449C101.55 12.9271 101.2 12.6658 100.5 12.6658C100.325 12.6658 100.14 12.6842 99.946 12.7207C99.9731 13.1819 99.9866 13.7039 99.9866 14.2871C100.048 14.2922 100.12 14.2943 100.201 14.2943C101.101 14.2946 101.55 14.0129 101.55 13.449ZM109.753 14.2946C109.753 15.0434 109.522 15.6645 109.058 16.1574C108.595 16.6504 108.022 16.8967 107.339 16.8967C106.688 16.8967 106.144 16.6705 105.705 16.2177C105.267 15.7653 105.047 15.1899 105.047 14.4925C105.047 13.7437 105.279 13.1226 105.742 12.6297C106.206 12.1367 106.779 11.8904 107.461 11.8904C108.112 11.8904 108.657 12.1159 109.095 12.5673C109.534 13.0188 109.753 13.5942 109.753 14.2946ZM108.733 14.4006C108.733 13.8906 108.601 13.477 108.338 13.1598C108.074 12.8426 107.748 12.6842 107.362 12.6842C107.002 12.6842 106.696 12.844 106.445 13.1635C106.194 13.4831 106.068 13.8868 106.068 14.375C106.068 14.8823 106.2 15.2952 106.465 15.6138C106.73 15.9323 107.055 16.0914 107.439 16.0914C107.799 16.0914 108.105 15.9309 108.356 15.61C108.607 15.2894 108.733 14.886 108.733 14.4006ZM114.764 16.7649H113.851C113.851 16.6647 113.512 16.1367 112.835 15.1804C112.125 14.1726 111.721 13.4838 111.622 13.1128H111.563C111.625 13.647 111.656 14.1301 111.656 14.5621C111.656 15.1647 111.673 15.8993 111.707 16.7653H110.798C110.834 16.009 110.853 15.1784 110.853 14.2732C110.853 13.3827 110.834 12.6249 110.798 12.0005H111.895C111.895 12.1299 112.2 12.6461 112.808 13.5485C113.457 14.5072 113.829 15.1576 113.925 15.4993H113.98C113.921 14.9552 113.891 14.4673 113.891 14.0354C113.891 13.3745 113.874 12.6958 113.84 12.0005H114.764C114.729 12.6055 114.713 13.3632 114.713 14.2732C114.713 15.1899 114.73 16.0205 114.764 16.7649Z" fill="#F9F9FA"/>
<defs>
<linearGradient id="paint0_linear_47_404" x1="10.8456" y1="6.92128" x2="179.854" y2="42.4807" gradientUnits="userSpaceOnUse">
<stop stop-color="#20A8B9"/>
<stop offset="1" stop-color="#AE1DA9"/>
</linearGradient>
<linearGradient id="paint1_linear_47_404" x1="23.7247" y1="11.3807" x2="23.7247" y2="49.9811" gradientUnits="userSpaceOnUse">
<stop stop-color="#257CB0"/>
<stop offset="0.286" stop-color="#4A93B5"/>
<stop offset="0.767" stop-color="#78BCBB"/>
<stop offset="1" stop-color="#89CFBD"/>
</linearGradient>
<linearGradient id="paint2_linear_47_404" x1="13.8939" y1="20.961" x2="38.8372" y2="20.961" gradientUnits="userSpaceOnUse">
<stop stop-color="#52C1AD"/>
<stop offset="1" stop-color="#DEE89A"/>
</linearGradient>
<linearGradient id="paint3_linear_47_404" x1="26.365" y1="30.6815" x2="26.365" y2="50.1218" gradientUnits="userSpaceOnUse">
<stop stop-color="#EC413D"/>
<stop offset="0.167" stop-color="#DA4452"/>
<stop offset="0.575" stop-color="#B0487A"/>
<stop offset="0.862" stop-color="#954A92"/>
<stop offset="1" stop-color="#8A4A9D"/>
</linearGradient>
<linearGradient id="paint4_linear_47_404" x1="40.7314" y1="25.4969" x2="40.7314" y2="35.8642" gradientUnits="userSpaceOnUse">
<stop stop-color="#F58879"/>
<stop offset="0.119" stop-color="#F69079"/>
<stop offset="0.713" stop-color="#FCB877"/>
<stop offset="1" stop-color="#FEC874"/>
</linearGradient>
</defs>
</svg>
