<svg width="22" height="22" viewBox="0 0 22 22" fill="none" xmlns="http://www.w3.org/2000/svg">
<path d="M10.5947 2.13756C12.797 2.16989 14.9993 2.19538 17.2014 2.2374C18.2013 2.25651 19.1683 2.43063 20.0903 2.85586C20.8657 3.21348 21.3887 3.76185 21.551 4.59848C21.6722 5.1741 21.7433 5.75915 21.7636 6.34705C21.7798 7.25059 21.6902 8.15578 21.6977 9.05984C21.7104 10.569 21.7611 12.078 21.8022 13.5869C21.8209 14.2767 21.8661 14.9659 21.8789 15.6557C21.896 16.4992 21.5941 17.318 21.0334 17.9482C20.7756 18.2559 20.4912 18.5402 20.1834 18.7979C19.2442 19.5675 18.1679 19.9059 16.9417 19.8498C15.044 19.7633 13.1443 19.7115 11.2448 19.6753C9.66179 19.6448 8.07749 19.6751 6.49444 19.6432C5.64708 19.626 4.79974 19.5541 3.9563 19.4712C3.54421 19.4306 3.13853 19.3155 2.73283 19.2216C2.06912 19.0637 1.47202 18.7007 1.02638 18.184C0.540632 17.6403 0.473537 16.9476 0.334676 16.2533C-0.0953078 14.106 0.172116 11.9529 0.28642 9.80314C0.363546 8.35341 0.495847 6.90661 0.604792 5.45851C0.652433 4.82517 0.665319 4.20393 0.933357 3.61874C1.41963 2.55672 2.2763 2.0241 3.42765 2.04632C5.81656 2.09249 8.20574 2.12734 10.5947 2.16677C10.5945 2.15709 10.5946 2.14733 10.5947 2.13756ZM1.56549 11.4685C1.36196 13.1047 1.33645 14.7082 1.62602 16.3061C1.7788 17.1497 2.21741 17.7805 3.07989 17.9973C3.73261 18.1616 4.40082 18.3168 5.06909 18.3553C6.38991 18.4313 7.71546 18.4226 9.03907 18.4509C9.84483 18.4682 10.6507 18.4832 11.4562 18.5094C13.3983 18.5725 15.3407 18.6351 17.2822 18.7111C17.7074 18.7319 18.1324 18.6685 18.533 18.5247C18.9336 18.3809 19.302 18.1594 19.6168 17.873C20.373 17.2109 20.8515 16.4193 20.8147 15.3615C20.7736 14.1839 20.7824 13.0044 20.767 11.8259C20.7656 11.7158 20.7449 11.6061 20.7332 11.4954C20.5872 11.502 20.4727 11.5127 20.3585 11.5115C17.8404 11.4755 15.3224 11.433 12.8041 11.4023C10.2282 11.371 7.65219 11.3373 5.07627 11.3333C3.95526 11.3313 2.83417 11.3992 1.71282 11.4369C1.66296 11.4436 1.61371 11.4541 1.56549 11.4685ZM20.7305 8.89379C20.7573 8.56342 20.7957 8.27992 20.7997 7.99572C20.8094 7.34863 20.817 6.70076 20.7971 6.05409C20.7784 5.66692 20.7384 5.28103 20.6776 4.89823C20.5988 4.33916 20.273 3.98294 19.7665 3.73195C18.8381 3.27169 17.846 3.13531 16.8355 3.10626C15.1947 3.05957 13.5531 3.03841 11.9117 3.02094C10.4286 3.00512 8.94534 3.00572 7.46215 3.00477C6.31053 3.00399 5.15356 2.94616 4.00869 3.03323C2.66366 3.13551 2.36086 3.48838 2.01345 4.52472C1.98196 4.62035 1.96285 4.7196 1.95656 4.82009C1.86952 6.13963 1.78508 7.45936 1.70323 8.77926C1.70852 8.83234 1.72185 8.88428 1.74281 8.93331C4.91464 8.88395 8.06461 8.80184 11.2148 8.79501C14.3649 8.78818 17.5164 8.85731 20.7301 8.89379H20.7305Z" fill="#28DBF1"/>
<path d="M14.4867 13.3867C14.5738 13.3632 14.6627 13.3472 14.7527 13.339C15.7435 13.3415 16.7345 13.3437 17.7253 13.3563C18.0681 13.3607 18.4104 13.3962 18.753 13.4146C18.9772 13.4268 19.0911 13.5463 19.1113 13.7651C19.1501 14.1792 19.2059 14.5925 19.2238 15.0074C19.2382 15.3397 19.0768 15.5133 18.7335 15.5374C18.247 15.5714 17.7581 15.5886 17.2705 15.5867C16.5235 15.5836 15.7767 15.5586 15.03 15.5408C14.9009 15.5425 14.7719 15.5332 14.6444 15.513C14.4579 15.4761 14.323 15.3574 14.3213 15.1617C14.3163 14.5803 14.2271 13.9891 14.4867 13.3867ZM18.4467 13.9688L14.7476 13.8542C14.7953 14.2023 14.8389 14.5211 14.8897 14.8923C16.0893 14.8091 17.2541 15.0086 18.4467 14.9192V13.9688Z" fill="#28DBF1"/>
</svg>
