<svg width="22" height="20" viewBox="0 0 22 20" fill="none" xmlns="http://www.w3.org/2000/svg">
<path d="M2.26593 2.3335L2.62343 2.68306L2.26593 2.3335C2.05884 2.5453 1.94444 2.83021 1.94444 3.125C1.94444 3.41979 2.05884 3.7047 2.26593 3.9165L2.62343 3.56694L2.26593 3.9165C2.4734 4.12868 2.7572 4.25 3.05556 4.25H19.5556C20.0676 4.25 20.561 4.45792 20.9265 4.83179C21.2925 5.20605 21.5 5.71599 21.5 6.25V17.5C21.5 18.034 21.2925 18.544 20.9265 18.9182C20.561 19.2921 20.0676 19.5 19.5556 19.5H2.44444C1.93242 19.5 1.43903 19.2921 1.07346 18.9182C0.707527 18.544 0.5 18.034 0.5 17.5V3.125C0.5 2.42523 0.771912 1.75631 1.25245 1.26485C1.73262 0.773767 2.38145 0.5 3.05556 0.5H15.8889C16.0768 0.5 16.2593 0.576224 16.3956 0.715675C16.5324 0.855508 16.6111 1.04751 16.6111 1.25C16.6111 1.45249 16.5324 1.64449 16.3956 1.78432C16.2593 1.92378 16.0768 2 15.8889 2H3.05556C2.7572 2 2.4734 2.12132 2.26593 2.3335ZM15.2778 14.25C15.9003 14.25 16.495 13.997 16.9316 13.5504C17.3679 13.1042 17.6111 12.5013 17.6111 11.875C17.6111 11.2487 17.3679 10.6458 16.9316 10.1996C16.495 9.75302 15.9003 9.5 15.2778 9.5C14.6553 9.5 14.0606 9.75302 13.6239 10.1996C13.1876 10.6458 12.9444 11.2487 12.9444 11.875C12.9444 12.5013 13.1876 13.1042 13.6239 13.5504C14.0606 13.997 14.6553 14.25 15.2778 14.25Z" stroke="#28DBF1"/>
</svg>
