<svg width="390" height="119" viewBox="0 0 390 119" fill="none" xmlns="http://www.w3.org/2000/svg">
<path d="M0.666667 113.5C0.666667 116.446 3.05448 118.833 6 118.833C8.94552 118.833 11.3333 116.446 11.3333 113.5C11.3333 110.554 8.94552 108.167 6 108.167C3.05448 108.167 0.666667 110.554 0.666667 113.5ZM226.5 6V5H226.269L226.062 5.10113L226.5 6ZM378.667 6C378.667 8.94552 381.054 11.3333 384 11.3333C386.946 11.3333 389.333 8.94552 389.333 6C389.333 3.05448 386.946 0.666667 384 0.666667C381.054 0.666667 378.667 3.05448 378.667 6ZM6.43822 114.399L226.938 6.89887L226.062 5.10113L5.56178 112.601L6.43822 114.399ZM226.5 7H384V5H226.5V7Z" fill="white"/>
</svg>
