<svg width="275" height="214" viewBox="0 0 275 214" fill="none" xmlns="http://www.w3.org/2000/svg">
<path d="M0.666667 208.5C0.666667 211.446 3.05448 213.833 6 213.833C8.94552 213.833 11.3333 211.446 11.3333 208.5C11.3333 205.554 8.94552 203.167 6 203.167C3.05448 203.167 0.666667 205.554 0.666667 208.5ZM111.5 5.5V4.5H110.893L110.613 5.03885L111.5 5.5ZM263.667 5.5C263.667 8.44552 266.054 10.8333 269 10.8333C271.946 10.8333 274.333 8.44552 274.333 5.5C274.333 2.55448 271.946 0.166667 269 0.166667C266.054 0.166667 263.667 2.55448 263.667 5.5ZM6.88732 208.961L112.387 5.96115L110.613 5.03885L5.11268 208.039L6.88732 208.961ZM111.5 6.5H269V4.5H111.5V6.5Z" fill="white"/>
</svg>
