<svg width="316" height="146" viewBox="0 0 316 146" fill="none" xmlns="http://www.w3.org/2000/svg">
<path d="M312.431 144.822C315.02 143.416 315.979 140.178 314.574 137.59C313.168 135.001 309.931 134.042 307.342 135.447C304.753 136.853 303.794 140.09 305.199 142.679C306.605 145.268 309.843 146.227 312.431 144.822ZM81.1463 144.272L80.2675 144.749L80.5572 145.283L81.1644 145.272L81.1463 144.272ZM8.5446 10.5424C11.1332 9.13704 12.0925 5.89926 10.6871 3.31062C9.28173 0.721978 6.04395 -0.237254 3.45532 1.16811C0.866683 2.57348 -0.0925458 5.81125 1.31282 8.3999C2.71819 10.9885 5.95597 11.9478 8.5446 10.5424ZM309.869 139.135L81.1282 143.272L81.1644 145.272L309.905 141.134L309.869 139.135ZM82.0251 143.795L6.8788 5.37814L5.12112 6.33238L80.2675 144.749L82.0251 143.795Z" fill="white"/>
</svg>
