<svg width="2198" height="403" viewBox="0 0 2198 403" fill="none" xmlns="http://www.w3.org/2000/svg">
<g opacity="0.57">
<path d="M2197 198.145C1924.16 256.95 1538.43 8.66109 1376.33 81.6778C1208.96 156.981 999.981 355.286 788.662 328.987C577.343 302.688 432.818 154.531 1.00003 402.494" stroke="url(#paint0_radial_159_373)" stroke-width="0.5" stroke-miterlimit="10"/>
<path d="M2187.04 200.269C1908.93 266.098 1523.98 17.8088 1358.56 84.2915C1188.06 152.898 983.575 341.728 774.991 320.493C566.21 299.258 415.826 155.511 4.51561 391.713" stroke="url(#paint1_radial_159_373)" stroke-width="0.5" stroke-miterlimit="10"/>
<path d="M2177.08 202.229C1893.5 275.082 1509.53 26.7929 1340.79 86.5784C1167.36 148.487 967.17 328.007 761.124 311.836C554.883 295.664 398.639 156.328 7.83571 380.768" stroke="url(#paint2_radial_159_373)" stroke-width="0.5" stroke-miterlimit="10"/>
<path d="M2167.12 204.189C1878.26 284.23 1495.27 35.7771 1323.21 89.0286C1146.65 144.404 950.96 314.449 747.257 303.342C543.555 292.234 381.258 157.308 11.1563 369.988" stroke="url(#paint3_radial_159_373)" stroke-width="0.5" stroke-miterlimit="10"/>
<path d="M2157.16 206.149C1863.03 293.214 1480.62 44.4343 1305.44 91.4786C1125.76 139.666 934.75 300.891 733.586 294.684C532.423 288.64 364.266 158.125 14.6716 359.043" stroke="url(#paint4_radial_159_373)" stroke-width="0.5" stroke-miterlimit="10"/>
<path d="M2147.2 208.109C1847.6 302.198 1466.37 53.4185 1287.66 93.9289C1104.86 135.419 918.343 287.17 719.719 286.19C521.095 285.21 347.079 159.268 17.9915 348.099" stroke="url(#paint5_radial_159_373)" stroke-width="0.5" stroke-miterlimit="10"/>
<path d="M2137.24 210.07C1832.37 311.346 1451.91 62.4029 1270.09 96.3793C1084.16 131.173 902.133 273.776 705.853 277.696C509.767 281.616 329.892 160.249 21.3115 337.318" stroke="url(#paint6_radial_159_373)" stroke-width="0.5" stroke-miterlimit="10"/>
<path d="M2127.28 212.03C1816.94 320.33 1437.46 71.5504 1252.31 98.8296C1063.45 126.762 885.728 260.054 692.181 269.038C498.44 278.023 312.705 161.065 24.8271 326.374" stroke="url(#paint7_radial_159_373)" stroke-width="0.5" stroke-miterlimit="10"/>
<path d="M2117.32 213.99C1801.7 329.477 1423.2 80.5343 1234.54 101.28C1042.56 122.515 869.322 246.496 678.315 260.544C487.307 274.592 295.519 162.045 28.1475 315.592" stroke="url(#paint8_radial_159_373)" stroke-width="0.5" stroke-miterlimit="10"/>
<path d="M2107.36 215.95C1786.47 338.461 1408.75 89.5186 1216.96 103.73C1022.05 118.268 853.112 232.938 664.644 251.887C475.98 270.998 278.528 162.862 31.663 304.648" stroke="url(#paint9_radial_159_373)" stroke-width="0.5" stroke-miterlimit="10"/>
<path d="M2097.4 217.91C1771.04 347.609 1394.3 98.666 1199.19 106.343C1001.15 114.184 836.902 219.38 650.777 243.556C464.652 267.568 261.145 164.005 34.9831 294.031" stroke="url(#paint10_radial_159_373)" stroke-width="0.5" stroke-miterlimit="10"/>
<path d="M2087.43 220.034C1755.61 356.756 1379.85 107.65 1181.42 108.793C980.451 109.937 820.496 205.822 636.911 234.898C453.325 263.974 243.959 164.985 38.3032 283.086" stroke="url(#paint11_radial_159_373)" stroke-width="0.5" stroke-miterlimit="10"/>
<path d="M2077.47 221.994C1740.38 365.904 1365.59 116.798 1163.84 111.244C959.748 105.69 804.286 192.265 623.239 226.404C442.192 260.544 226.967 165.966 41.8188 272.142" stroke="url(#paint12_radial_159_373)" stroke-width="0.5" stroke-miterlimit="10"/>
<path d="M2067.51 223.954C1725.14 374.888 1351.14 125.782 1146.07 113.694C939.046 101.443 787.88 178.707 609.372 217.91C430.864 257.114 209.585 166.946 45.1385 261.361" stroke="url(#paint13_radial_159_373)" stroke-width="0.5" stroke-miterlimit="10"/>
<path d="M2057.55 225.914C1709.72 384.036 1336.88 134.929 1128.3 116.144C918.148 97.196 771.475 165.149 595.506 209.253C419.537 253.357 192.398 167.762 48.459 250.417" stroke="url(#paint14_radial_159_373)" stroke-width="0.5" stroke-miterlimit="10"/>
<path d="M2047.59 227.874C1694.48 393.019 1322.43 144.077 1110.72 118.594C897.641 92.9486 755.265 151.427 581.835 200.758C408.404 250.09 175.406 168.742 51.9742 239.635" stroke="url(#paint15_radial_159_373)" stroke-width="0.5" stroke-miterlimit="10"/>
<path d="M2037.63 229.835C1679.05 402.167 1307.98 153.061 1092.95 121.045C876.744 88.8652 738.859 137.87 567.773 192.101C396.686 246.333 157.829 169.559 55.0993 228.691" stroke="url(#paint16_radial_159_373)" stroke-width="0.5" stroke-miterlimit="10"/>
<path d="M2027.67 231.795C1663.82 411.151 1293.52 162.535 1075.17 123.495C855.846 84.9449 722.649 124.312 554.102 183.607C385.554 242.903 140.838 170.703 58.6149 217.91" stroke="url(#paint17_radial_159_373)" stroke-width="0.5" stroke-miterlimit="10"/>
<path d="M2017.71 233.755C1648.39 420.299 1279.07 171.519 1057.4 125.945C834.949 80.6976 706.243 110.754 540.235 175.113C374.226 239.472 123.651 171.683 61.9351 207.129" stroke="url(#paint18_radial_159_373)" stroke-width="0.5" stroke-miterlimit="10"/>
<path d="M2007.75 235.715C1633.16 429.283 1264.62 180.504 1039.82 128.396C814.246 76.4508 690.033 97.196 526.368 166.456C362.703 235.715 106.269 172.5 65.255 196.022" stroke="url(#paint19_radial_159_373)" stroke-width="0.5" stroke-miterlimit="10"/>
<path d="M1997.79 237.676C1617.73 438.431 1250.17 189.651 1022.05 130.846C793.544 72.2039 673.627 83.4749 512.697 157.962C351.571 232.285 89.2773 173.48 68.7704 185.241" stroke="url(#paint20_radial_159_373)" stroke-width="0.5" stroke-miterlimit="10"/>
<path d="M1987.83 239.799C1602.49 447.578 1235.91 198.799 1004.28 133.459C772.842 68.12 657.222 70.0802 498.83 149.467C340.243 228.855 72.0905 174.46 72.0905 174.46" stroke="url(#paint21_radial_159_373)" stroke-width="0.5" stroke-miterlimit="10"/>
<path d="M1988.81 234.899C1909.32 275.082 1831 299.911 1754.64 311.182C1655.42 325.72 1558.75 317.39 1466.76 297.461C1415 286.19 1364.61 271.325 1316.57 254.01C1262.47 234.409 1211.69 212.193 1164.23 191.611C1108.37 167.273 1056.81 145.22 1010.14 130.846C960.334 115.491 914.633 102.75 873.033 95.726C795.497 82.8215 733.586 84.945 672.846 96.5427C620.114 106.67 568.163 124.475 511.525 149.631C508.791 150.938 505.861 152.081 503.127 153.388C444.731 179.687 373.64 187.201 305.479 188.181C186.148 189.978 76.3871 168.416 71.5045 168.906" stroke="url(#paint22_radial_159_373)" stroke-width="0.5" stroke-miterlimit="10"/>
<path d="M1989.78 229.998C1909.71 267.731 1831.59 294.194 1755.42 306.935C1656.98 323.433 1560.5 317.389 1468.12 299.258C1416.17 288.967 1365.39 274.919 1317.35 257.44C1263.25 237.675 1213.45 214.316 1166.77 192.591C1112.28 167.272 1062.28 143.913 1015.8 128.232C966.584 111.734 919.906 97.1958 877.72 91.1519C799.989 80.0442 739.836 87.0682 679.291 100.789C626.559 112.714 573.241 131.009 515.431 154.041C512.501 155.184 509.572 156.328 506.642 157.471C446.879 181.32 375.984 185.24 307.237 184.587C189.468 183.444 79.7075 162.535 69.9423 163.515" stroke="url(#paint23_radial_159_373)" stroke-width="0.5" stroke-miterlimit="10"/>
<path d="M1990.76 225.098C1910.29 260.217 1832.37 288.313 1756.2 302.525C1658.55 320.82 1562.26 317.226 1469.49 301.054C1417.54 291.907 1366.18 278.512 1317.94 260.707C1264.03 240.779 1215.01 216.277 1169.31 193.408C1116.38 166.946 1067.56 142.443 1021.46 125.618C972.833 107.977 925.375 91.642 882.408 86.4149C804.481 76.9407 746.085 89.0285 685.932 104.873C633.2 118.758 578.319 137.216 519.728 158.288C516.798 159.268 513.869 160.412 510.744 161.392C449.614 182.954 378.913 183.28 309.581 180.83C193.179 176.746 83.6137 156.491 69.1612 158.125" stroke="url(#paint24_radial_159_373)" stroke-width="0.5" stroke-miterlimit="10"/>
<path d="M1991.74 220.197C1910.88 252.867 1832.95 282.433 1757.18 298.278C1660.5 318.533 1564.21 317.226 1471.05 302.851C1418.91 294.684 1367.15 282.27 1318.91 264.138C1265.2 244.046 1216.96 218.4 1172.24 194.388C1120.68 166.782 1073.22 140.973 1027.71 123.168C979.669 104.383 931.234 86.2516 887.681 81.8412C809.754 74.0005 753.116 91.1521 692.963 108.957C640.231 124.638 583.983 143.587 524.415 162.535C521.485 163.515 518.361 164.332 515.236 165.312C452.739 184.587 382.234 181.157 312.315 177.073C197.476 170.213 87.9102 150.447 68.5751 152.571" stroke="url(#paint25_radial_159_373)" stroke-width="0.5" stroke-miterlimit="10"/>
<path d="M1992.71 215.297C1911.47 245.516 1833.54 276.552 1757.96 293.867C1662.06 315.919 1565.97 317.062 1472.42 304.485C1420.08 297.297 1368.13 285.7 1319.69 267.405C1265.99 247.313 1218.53 220.197 1174.78 195.205C1124.78 166.455 1078.69 139.503 1033.38 120.391C985.919 100.299 936.507 80.5343 892.173 76.9406C814.051 70.7334 759.171 92.9487 699.408 112.877C646.676 130.519 589.061 149.794 528.321 166.619C525.196 167.436 522.072 168.252 518.947 169.069C455.082 186.057 384.773 179.033 314.268 173.153C200.992 163.678 91.6212 144.24 67.2082 146.854" stroke="url(#paint26_radial_159_373)" stroke-width="0.5" stroke-miterlimit="10"/>
<path d="M1993.69 210.396C1912.05 238.165 1834.32 270.508 1758.74 289.62C1663.62 313.632 1567.73 317.062 1473.79 306.445C1421.45 300.401 1368.91 289.457 1320.28 270.998C1266.77 250.743 1220.09 222.484 1177.32 196.185C1128.69 166.455 1083.96 138.196 1039.04 117.941C992.169 96.7057 941.975 75.1437 896.86 72.5302C818.543 67.9564 765.42 95.2356 705.853 117.288C653.121 136.726 593.943 156.328 532.423 171.193C529.298 172.009 526.173 172.663 522.853 173.316C457.621 188.017 387.507 177.4 316.416 169.559C204.897 157.471 95.5271 138.523 66.4267 141.626" stroke="url(#paint27_radial_159_373)" stroke-width="0.5" stroke-miterlimit="10"/>
<path d="M1994.67 205.496C1912.44 230.815 1834.91 264.628 1759.52 285.21C1665.19 311.019 1569.49 316.899 1475.16 308.078C1422.62 303.015 1369.69 293.05 1321.06 274.265C1267.55 253.847 1221.85 224.444 1179.86 197.002C1132.79 166.129 1089.23 136.726 1044.71 115.327C998.223 92.9487 947.249 69.5899 901.548 67.7931C823.231 64.8528 771.67 97.3592 712.298 121.371C659.566 142.77 598.826 162.535 536.524 175.44C533.204 176.093 530.079 176.746 526.759 177.236C460.16 189.488 390.241 175.44 318.565 165.802C208.413 150.937 99.0429 132.479 65.06 135.909" stroke="url(#paint28_radial_159_373)" stroke-width="0.5" stroke-miterlimit="10"/>
<path d="M1995.64 200.596C1913.03 223.301 1835.49 258.748 1760.3 280.963C1666.75 308.569 1571.25 317.063 1476.52 309.875C1423.79 305.955 1370.47 296.644 1321.65 277.696C1268.33 257.114 1223.41 226.568 1182.4 197.982C1136.69 166.129 1094.51 135.42 1050.56 112.714C1004.67 89.1921 952.913 63.8731 906.43 63.0563C827.918 61.5862 778.311 99.3196 719.134 125.455C666.401 148.814 604.295 168.906 540.821 179.687C537.501 180.177 534.181 180.667 530.86 181.157C462.895 191.121 393.171 173.643 320.908 162.045C212.319 144.73 103.144 126.435 64.2788 130.519" stroke="url(#paint29_radial_159_373)" stroke-width="0.5" stroke-miterlimit="10"/>
<path d="M1996.81 195.695C1913.81 215.95 1836.27 252.867 1761.28 276.553C1668.51 305.955 1573.2 316.9 1478.09 311.672C1425.35 308.732 1371.45 300.238 1322.62 281.126C1269.5 260.381 1225.36 228.855 1185.13 198.962C1140.8 166.129 1100.17 133.95 1056.42 110.264C1011.11 85.7618 958.381 59.7895 911.313 58.646C832.801 56.6859 784.756 101.607 725.774 129.866C673.042 155.021 609.373 175.44 545.118 184.261C541.797 184.751 538.282 185.078 534.962 185.404C465.629 193.082 396.1 172.01 323.252 158.615C216.225 138.85 107.05 120.718 63.3021 125.292" stroke="url(#paint30_radial_159_373)" stroke-width="0.5" stroke-miterlimit="10"/>
<path d="M1997.79 190.795C1914.39 208.6 1837.05 246.823 1762.25 272.305C1670.26 303.505 1575.15 316.9 1479.65 313.469C1426.72 311.509 1372.43 303.995 1323.4 284.393C1270.28 263.485 1227.12 230.815 1187.86 199.779C1145.09 165.802 1105.64 132.479 1062.28 107.65C1017.56 82.0048 964.045 52.9288 916.195 53.9089C837.488 55.5424 791.201 103.73 732.609 133.786C679.877 160.902 614.646 181.484 549.609 188.344C546.094 188.671 542.774 188.998 539.258 189.161C468.558 194.552 399.225 170.049 325.791 154.695C220.326 132.479 111.151 114.511 62.7159 119.575" stroke="url(#paint31_radial_159_373)" stroke-width="0.5" stroke-miterlimit="10"/>
<path d="M1998.77 185.894C1914.98 201.249 1837.64 240.942 1763.03 267.895C1671.83 300.891 1576.91 316.736 1481.02 315.102C1427.89 314.122 1373.21 307.425 1324.19 287.66C1271.26 266.588 1228.68 232.775 1190.6 200.595C1149.19 165.639 1111.11 131.009 1068.14 105.036C1024 78.2473 969.709 47.2112 921.078 49.1713C842.371 52.275 797.841 105.69 739.25 137.869C686.518 166.945 619.919 187.691 553.711 192.591C550.196 192.918 546.68 193.081 543.165 193.081C471.097 196.021 401.96 168.416 327.939 150.937C224.038 126.435 114.863 108.467 61.5445 114.021" stroke="url(#paint32_radial_159_373)" stroke-width="0.5" stroke-miterlimit="10"/>
<path d="M1999.74 180.994C1915.37 193.735 1838.23 234.899 1763.82 263.648C1673.39 298.441 1578.67 316.736 1482.38 317.063C1429.26 317.226 1374.18 311.182 1324.77 291.254C1272.04 270.019 1230.24 235.225 1192.94 201.739C1152.9 165.802 1116.19 129.866 1073.81 102.587C1030.25 74.6541 974.982 41.8211 925.765 44.598C846.862 49.1718 804.091 107.814 745.89 142.117C693.158 173.153 624.997 194.062 558.007 197.002C554.492 197.165 550.781 197.165 547.266 197.329C473.831 197.982 404.889 166.946 330.283 147.507C227.943 120.718 118.963 102.75 60.7628 108.957" stroke="url(#paint33_radial_159_373)" stroke-width="0.5" stroke-miterlimit="10"/>
<path d="M2000.72 176.093C1915.96 186.384 1838.81 229.018 1764.6 259.238C1674.95 295.828 1580.42 316.573 1483.75 318.696C1430.43 319.84 1374.96 314.776 1325.55 294.521C1272.82 273.122 1232 237.186 1195.68 202.392C1157.01 165.476 1121.85 128.232 1079.66 99.8097C1036.5 70.7337 980.646 35.9406 930.648 39.8609C851.745 45.9048 810.536 109.937 752.53 146.201C699.798 179.034 630.075 200.269 562.304 201.249C558.593 201.249 555.078 201.249 551.367 201.249C476.566 199.615 407.623 165.312 332.822 143.587C231.849 114.511 123.065 96.5427 59.9818 103.24" stroke="url(#paint34_radial_159_373)" stroke-width="0.5" stroke-miterlimit="10"/>
<path d="M2001.7 171.192C1916.54 179.033 1839.4 222.974 1765.38 254.827C1676.51 293.05 1582.18 316.246 1485.12 320.329C1431.6 322.453 1375.75 318.206 1326.14 297.787C1273.6 276.225 1233.37 239.145 1198.02 203.209C1160.72 165.312 1126.93 126.762 1085.13 97.1957C1042.56 66.9763 985.724 30.223 935.14 35.1234C856.042 42.6374 816.785 111.897 758.78 150.284C706.048 185.077 634.957 206.312 566.015 205.496C562.304 205.496 558.593 205.332 554.883 205.169C478.714 201.249 409.967 163.678 334.58 139.83C235.17 108.63 126.385 90.4985 58.4195 97.6858" stroke="url(#paint35_radial_159_373)" stroke-width="0.5" stroke-miterlimit="10"/>
<path d="M2002.67 166.292C1917.13 171.683 1839.98 216.93 1766.35 250.58C1678.27 290.6 1584.14 316.246 1486.68 322.29C1433.17 325.393 1376.72 321.963 1327.12 301.381C1274.77 279.656 1235.32 241.596 1200.95 204.352C1165.01 165.476 1132.59 125.619 1091.19 94.7458C1049.2 63.3829 991.583 24.8327 940.218 30.5499C861.12 39.5341 823.426 114.184 765.811 154.531C713.079 191.285 640.426 212.683 570.702 209.906C566.992 209.743 563.086 209.416 559.375 209.253C481.839 203.046 413.287 162.209 337.314 136.236C239.271 102.75 130.878 84.6182 58.0291 92.2956" stroke="url(#paint36_radial_159_373)" stroke-width="0.5" stroke-miterlimit="10"/>
<path d="M2003.65 161.392C1917.72 164.169 1840.77 211.05 1767.14 246.17C1679.83 287.987 1585.89 316.083 1488.05 323.923C1434.34 328.007 1377.5 325.557 1327.9 304.648C1275.55 282.76 1236.88 243.556 1203.49 205.169C1168.92 165.312 1137.87 124.148 1096.85 92.1321C1055.45 59.6258 996.856 19.1155 944.905 25.8127C865.612 36.1037 829.871 116.144 772.256 158.452C719.524 197.165 645.308 218.727 574.804 213.99C570.898 213.663 567.187 213.337 563.281 213.01C484.378 204.352 415.826 160.412 339.462 132.316C242.787 96.7059 134.588 78.4109 56.8569 86.5783" stroke="url(#paint37_radial_159_373)" stroke-width="0.5" stroke-miterlimit="10"/>
<path d="M2004.63 156.491C1918.11 156.818 1841.35 205.006 1767.92 241.922C1681.4 285.373 1587.85 316.082 1489.41 325.72C1435.51 330.947 1378.29 329.15 1328.48 307.915C1276.34 285.863 1238.25 245.679 1206.03 205.986C1172.83 165.149 1143.14 122.678 1102.71 89.5185C1061.7 56.0321 1002.52 13.3982 949.788 21.2389C870.299 33 836.316 118.431 779.092 162.699C726.555 203.372 650.777 224.934 579.1 218.4C575.194 218.074 571.288 217.584 567.382 217.093C487.112 206.149 418.56 159.105 341.806 128.722C246.497 91.152 138.494 72.6936 56.0759 81.3511" stroke="url(#paint38_radial_159_373)" stroke-width="0.5" stroke-miterlimit="10"/>
<path d="M2005.6 151.591C1918.69 149.468 1841.94 198.962 1768.7 237.512C1682.96 282.76 1589.6 315.919 1490.78 327.517C1436.88 333.724 1379.07 332.744 1329.26 311.346C1277.12 289.13 1240.01 247.803 1208.76 206.966C1176.93 165.149 1148.61 121.372 1108.57 86.9053C1068.14 52.2754 1007.99 7.68136 954.671 16.5022C875.182 29.7334 842.957 120.392 785.732 166.783C733.196 209.416 655.855 231.142 583.397 222.648C579.296 222.158 575.39 221.668 571.484 221.014C489.847 207.783 421.295 157.472 344.15 124.965C250.208 85.2718 142.401 66.6501 55.0997 75.7976" stroke="url(#paint39_radial_159_373)" stroke-width="0.5" stroke-miterlimit="10"/>
<path d="M2006.58 146.69C1919.28 142.117 1842.33 192.918 1769.48 233.265C1684.52 280.146 1591.36 315.919 1492.15 329.314C1438.05 336.501 1380.04 336.501 1329.85 314.776C1277.9 292.397 1241.38 250.09 1211.1 207.783C1180.44 164.985 1153.69 119.901 1114.04 84.2914C1074.2 48.5182 1013.07 1.96394 959.162 11.7648C879.478 26.3028 849.206 122.515 792.177 170.866C739.641 215.46 660.933 237.185 587.499 226.894C583.397 226.404 579.296 225.588 575.39 224.934C492.386 209.416 423.834 156.001 346.298 121.208C253.724 79.5544 146.307 60.606 54.1231 70.4068" stroke="url(#paint40_radial_159_373)" stroke-width="0.5" stroke-miterlimit="10"/>
<path d="M2007.56 141.79C1919.86 134.766 1842.91 186.874 1770.26 228.855C1685.89 277.369 1593.12 315.919 1493.51 330.947C1439.22 339.115 1380.82 339.932 1330.63 318.043C1278.88 295.501 1242.94 252.05 1213.84 208.6C1184.54 164.822 1159.15 118.431 1119.9 81.6779C1080.45 44.7612 1018.73 -3.75319 964.045 7.02779C884.166 22.8726 855.651 124.639 798.818 174.95C746.281 221.504 666.206 243.229 591.6 231.142C587.499 230.488 583.397 229.671 579.296 228.855C494.925 211.05 426.373 154.531 348.446 117.288C256.849 73.5105 150.017 54.3988 52.9511 64.5264" stroke="url(#paint41_radial_159_373)" stroke-width="0.5" stroke-miterlimit="10"/>
<path d="M2008.53 137.053C1920.45 127.415 1843.5 181.157 1771.24 224.771C1687.65 275.082 1595.07 316.083 1495.08 333.071C1440.78 342.382 1381.8 343.852 1331.41 321.8C1279.66 299.094 1244.5 254.664 1216.38 209.906C1188.25 165.149 1164.43 117.451 1125.76 79.391C1086.89 41.3309 1024.2 -9.14374 968.928 2.78068C888.853 20.0956 862.292 127.089 805.458 179.523C752.921 228.038 671.284 249.927 595.897 235.879C504.104 218.727 432.623 155.511 350.79 114.021C260.364 68.2833 153.923 48.8449 51.9746 59.6259" stroke="url(#paint42_radial_159_373)" stroke-width="0.5" stroke-miterlimit="10"/>
</g>
<defs>
<radialGradient id="paint0_radial_159_373" cx="0" cy="0" r="1" gradientUnits="userSpaceOnUse" gradientTransform="translate(1099 235.302) rotate(90) scale(167.191 1098)">
<stop stop-color="#EA55E5"/>
<stop offset="1" stop-color="#28DBF1"/>
</radialGradient>
<radialGradient id="paint1_radial_159_373" cx="0" cy="0" r="1" gradientUnits="userSpaceOnUse" gradientTransform="translate(1095.78 232.291) rotate(90) scale(159.422 1091.26)">
<stop stop-color="#EA55E5"/>
<stop offset="1" stop-color="#28DBF1"/>
</radialGradient>
<radialGradient id="paint2_radial_159_373" cx="0" cy="0" r="1" gradientUnits="userSpaceOnUse" gradientTransform="translate(1092.46 228.981) rotate(90) scale(151.787 1084.62)">
<stop stop-color="#EA55E5"/>
<stop offset="1" stop-color="#28DBF1"/>
</radialGradient>
<radialGradient id="paint3_radial_159_373" cx="0" cy="0" r="1" gradientUnits="userSpaceOnUse" gradientTransform="translate(1089.14 225.73) rotate(90) scale(144.258 1077.98)">
<stop stop-color="#EA55E5"/>
<stop offset="1" stop-color="#28DBF1"/>
</radialGradient>
<radialGradient id="paint4_radial_159_373" cx="0" cy="0" r="1" gradientUnits="userSpaceOnUse" gradientTransform="translate(1085.91 222.272) rotate(90) scale(136.771 1071.24)">
<stop stop-color="#EA55E5"/>
<stop offset="1" stop-color="#28DBF1"/>
</radialGradient>
<radialGradient id="paint5_radial_159_373" cx="0" cy="0" r="1" gradientUnits="userSpaceOnUse" gradientTransform="translate(1082.59 218.763) rotate(90) scale(129.336 1064.6)">
<stop stop-color="#EA55E5"/>
<stop offset="1" stop-color="#28DBF1"/>
</radialGradient>
<radialGradient id="paint6_radial_159_373" cx="0" cy="0" r="1" gradientUnits="userSpaceOnUse" gradientTransform="translate(1079.27 215.242) rotate(90) scale(122.076 1057.96)">
<stop stop-color="#EA55E5"/>
<stop offset="1" stop-color="#28DBF1"/>
</radialGradient>
<radialGradient id="paint7_radial_159_373" cx="0" cy="0" r="1" gradientUnits="userSpaceOnUse" gradientTransform="translate(1076.05 211.549) rotate(90) scale(114.825 1051.22)">
<stop stop-color="#EA55E5"/>
<stop offset="1" stop-color="#28DBF1"/>
</radialGradient>
<radialGradient id="paint8_radial_159_373" cx="0" cy="0" r="1" gradientUnits="userSpaceOnUse" gradientTransform="translate(1072.73 207.818) rotate(90) scale(107.774 1044.58)">
<stop stop-color="#EA55E5"/>
<stop offset="1" stop-color="#28DBF1"/>
</radialGradient>
<radialGradient id="paint9_radial_159_373" cx="0" cy="0" r="1" gradientUnits="userSpaceOnUse" gradientTransform="translate(1069.51 203.895) rotate(90) scale(100.754 1037.85)">
<stop stop-color="#EA55E5"/>
<stop offset="1" stop-color="#28DBF1"/>
</radialGradient>
<radialGradient id="paint10_radial_159_373" cx="0" cy="0" r="1" gradientUnits="userSpaceOnUse" gradientTransform="translate(1066.19 200.1) rotate(90) scale(93.9308 1031.21)">
<stop stop-color="#EA55E5"/>
<stop offset="1" stop-color="#28DBF1"/>
</radialGradient>
<radialGradient id="paint11_radial_159_373" cx="0" cy="0" r="1" gradientUnits="userSpaceOnUse" gradientTransform="translate(1062.87 195.938) rotate(90) scale(87.1482 1024.57)">
<stop stop-color="#EA55E5"/>
<stop offset="1" stop-color="#28DBF1"/>
</radialGradient>
<radialGradient id="paint12_radial_159_373" cx="0" cy="0" r="1" gradientUnits="userSpaceOnUse" gradientTransform="translate(1059.65 191.565) rotate(90) scale(80.5766 1017.83)">
<stop stop-color="#EA55E5"/>
<stop offset="1" stop-color="#28DBF1"/>
</radialGradient>
<radialGradient id="paint13_radial_159_373" cx="0" cy="0" r="1" gradientUnits="userSpaceOnUse" gradientTransform="translate(1056.33 192.379) rotate(90) scale(79.986 1011.19)">
<stop stop-color="#EA55E5"/>
<stop offset="1" stop-color="#28DBF1"/>
</radialGradient>
<radialGradient id="paint14_radial_159_373" cx="0" cy="0" r="1" gradientUnits="userSpaceOnUse" gradientTransform="translate(1053.01 195.546) rotate(90) scale(82.6613 1004.55)">
<stop stop-color="#EA55E5"/>
<stop offset="1" stop-color="#28DBF1"/>
</radialGradient>
<radialGradient id="paint15_radial_159_373" cx="0" cy="0" r="1" gradientUnits="userSpaceOnUse" gradientTransform="translate(1049.78 198.208) rotate(90) scale(85.858 997.809)">
<stop stop-color="#EA55E5"/>
<stop offset="1" stop-color="#28DBF1"/>
</radialGradient>
<radialGradient id="paint16_radial_159_373" cx="0" cy="0" r="1" gradientUnits="userSpaceOnUse" gradientTransform="translate(1046.37 200.417) rotate(90) scale(89.6314 991.266)">
<stop stop-color="#EA55E5"/>
<stop offset="1" stop-color="#28DBF1"/>
</radialGradient>
<radialGradient id="paint17_radial_159_373" cx="0" cy="0" r="1" gradientUnits="userSpaceOnUse" gradientTransform="translate(1043.14 202.134) rotate(90) scale(93.9716 984.528)">
<stop stop-color="#EA55E5"/>
<stop offset="1" stop-color="#28DBF1"/>
</radialGradient>
<radialGradient id="paint18_radial_159_373" cx="0" cy="0" r="1" gradientUnits="userSpaceOnUse" gradientTransform="translate(1039.82 203.254) rotate(90) scale(98.9756 977.888)">
<stop stop-color="#EA55E5"/>
<stop offset="1" stop-color="#28DBF1"/>
</radialGradient>
<radialGradient id="paint19_radial_159_373" cx="0" cy="0" r="1" gradientUnits="userSpaceOnUse" gradientTransform="translate(1036.5 203.844) rotate(90) scale(104.503 971.247)">
<stop stop-color="#EA55E5"/>
<stop offset="1" stop-color="#28DBF1"/>
</radialGradient>
<radialGradient id="paint20_radial_159_373" cx="0" cy="0" r="1" gradientUnits="userSpaceOnUse" gradientTransform="translate(1033.28 204.033) rotate(90) scale(110.587 964.51)">
<stop stop-color="#EA55E5"/>
<stop offset="1" stop-color="#28DBF1"/>
</radialGradient>
<radialGradient id="paint21_radial_159_373" cx="0" cy="0" r="1" gradientUnits="userSpaceOnUse" gradientTransform="translate(1029.96 203.998) rotate(90) scale(117.016 957.869)">
<stop stop-color="#EA55E5"/>
<stop offset="1" stop-color="#28DBF1"/>
</radialGradient>
<radialGradient id="paint22_radial_159_373" cx="0" cy="0" r="1" gradientUnits="userSpaceOnUse" gradientTransform="translate(1030.16 202.72) rotate(90) scale(115.807 958.651)">
<stop stop-color="#EA55E5"/>
<stop offset="1" stop-color="#28DBF1"/>
</radialGradient>
<radialGradient id="paint23_radial_159_373" cx="0" cy="0" r="1" gradientUnits="userSpaceOnUse" gradientTransform="translate(1029.86 201.121) rotate(90) scale(115.461 959.92)">
<stop stop-color="#EA55E5"/>
<stop offset="1" stop-color="#28DBF1"/>
</radialGradient>
<radialGradient id="paint24_radial_159_373" cx="0" cy="0" r="1" gradientUnits="userSpaceOnUse" gradientTransform="translate(1029.96 198.928) rotate(90) scale(115.856 960.799)">
<stop stop-color="#EA55E5"/>
<stop offset="1" stop-color="#28DBF1"/>
</radialGradient>
<radialGradient id="paint25_radial_159_373" cx="0" cy="0" r="1" gradientUnits="userSpaceOnUse" gradientTransform="translate(1030.16 196.735) rotate(90) scale(116.845 961.58)">
<stop stop-color="#EA55E5"/>
<stop offset="1" stop-color="#28DBF1"/>
</radialGradient>
<radialGradient id="paint26_radial_159_373" cx="0" cy="0" r="1" gradientUnits="userSpaceOnUse" gradientTransform="translate(1029.96 194.21) rotate(90) scale(118.331 962.752)">
<stop stop-color="#EA55E5"/>
<stop offset="1" stop-color="#28DBF1"/>
</radialGradient>
<radialGradient id="paint27_radial_159_373" cx="0" cy="0" r="1" gradientUnits="userSpaceOnUse" gradientTransform="translate(1030.06 192.087) rotate(90) scale(120.064 963.631)">
<stop stop-color="#EA55E5"/>
<stop offset="1" stop-color="#28DBF1"/>
</radialGradient>
<radialGradient id="paint28_radial_159_373" cx="0" cy="0" r="1" gradientUnits="userSpaceOnUse" gradientTransform="translate(1029.86 189.762) rotate(90) scale(122.155 964.803)">
<stop stop-color="#EA55E5"/>
<stop offset="1" stop-color="#28DBF1"/>
</radialGradient>
<radialGradient id="paint29_radial_159_373" cx="0" cy="0" r="1" gradientUnits="userSpaceOnUse" gradientTransform="translate(1029.96 187.66) rotate(90) scale(124.646 965.681)">
<stop stop-color="#EA55E5"/>
<stop offset="1" stop-color="#28DBF1"/>
</radialGradient>
<radialGradient id="paint30_radial_159_373" cx="0" cy="0" r="1" gradientUnits="userSpaceOnUse" gradientTransform="translate(1030.06 185.757) rotate(90) scale(127.173 966.756)">
<stop stop-color="#EA55E5"/>
<stop offset="1" stop-color="#28DBF1"/>
</radialGradient>
<radialGradient id="paint31_radial_159_373" cx="0" cy="0" r="1" gradientUnits="userSpaceOnUse" gradientTransform="translate(1030.25 183.939) rotate(90) scale(130.054 967.537)">
<stop stop-color="#EA55E5"/>
<stop offset="1" stop-color="#28DBF1"/>
</radialGradient>
<radialGradient id="paint32_radial_159_373" cx="0" cy="0" r="1" gradientUnits="userSpaceOnUse" gradientTransform="translate(1030.16 182.15) rotate(90) scale(133.067 968.611)">
<stop stop-color="#EA55E5"/>
<stop offset="1" stop-color="#28DBF1"/>
</radialGradient>
<radialGradient id="paint33_radial_159_373" cx="0" cy="0" r="1" gradientUnits="userSpaceOnUse" gradientTransform="translate(1030.25 180.75) rotate(90) scale(136.316 969.49)">
<stop stop-color="#EA55E5"/>
<stop offset="1" stop-color="#28DBF1"/>
</radialGradient>
<radialGradient id="paint34_radial_159_373" cx="0" cy="0" r="1" gradientUnits="userSpaceOnUse" gradientTransform="translate(1030.35 179.203) rotate(90) scale(139.645 970.369)">
<stop stop-color="#EA55E5"/>
<stop offset="1" stop-color="#28DBF1"/>
</radialGradient>
<radialGradient id="paint35_radial_159_373" cx="0" cy="0" r="1" gradientUnits="userSpaceOnUse" gradientTransform="translate(1030.06 177.751) rotate(90) scale(143.071 971.638)">
<stop stop-color="#EA55E5"/>
<stop offset="1" stop-color="#28DBF1"/>
</radialGradient>
<radialGradient id="paint36_radial_159_373" cx="0" cy="0" r="1" gradientUnits="userSpaceOnUse" gradientTransform="translate(1030.35 176.632) rotate(90) scale(146.651 972.322)">
<stop stop-color="#EA55E5"/>
<stop offset="1" stop-color="#28DBF1"/>
</radialGradient>
<radialGradient id="paint37_radial_159_373" cx="0" cy="0" r="1" gradientUnits="userSpaceOnUse" gradientTransform="translate(1030.25 175.327) rotate(90) scale(150.248 973.396)">
<stop stop-color="#EA55E5"/>
<stop offset="1" stop-color="#28DBF1"/>
</radialGradient>
<radialGradient id="paint38_radial_159_373" cx="0" cy="0" r="1" gradientUnits="userSpaceOnUse" gradientTransform="translate(1030.35 174.245) rotate(90) scale(153.949 974.275)">
<stop stop-color="#EA55E5"/>
<stop offset="1" stop-color="#28DBF1"/>
</radialGradient>
<radialGradient id="paint39_radial_159_373" cx="0" cy="0" r="1" gradientUnits="userSpaceOnUse" gradientTransform="translate(1030.35 173.105) rotate(90) scale(157.734 975.251)">
<stop stop-color="#EA55E5"/>
<stop offset="1" stop-color="#28DBF1"/>
</radialGradient>
<radialGradient id="paint40_radial_159_373" cx="0" cy="0" r="1" gradientUnits="userSpaceOnUse" gradientTransform="translate(1030.35 172.021) rotate(90) scale(161.583 976.228)">
<stop stop-color="#EA55E5"/>
<stop offset="1" stop-color="#28DBF1"/>
</radialGradient>
<radialGradient id="paint41_radial_159_373" cx="0" cy="0" r="1" gradientUnits="userSpaceOnUse" gradientTransform="translate(1030.25 170.869) rotate(90) scale(165.37 977.302)">
<stop stop-color="#EA55E5"/>
<stop offset="1" stop-color="#28DBF1"/>
</radialGradient>
<radialGradient id="paint42_radial_159_373" cx="0" cy="0" r="1" gradientUnits="userSpaceOnUse" gradientTransform="translate(1030.25 170.246) rotate(90) scale(169.246 978.279)">
<stop stop-color="#EA55E5"/>
<stop offset="1" stop-color="#28DBF1"/>
</radialGradient>
</defs>
</svg>
